<svg xmlns="http://www.w3.org/2000/svg" width="1200" height="300" viewBox="0 0 1200 300" role="img" shape-rendering="crispEdges" aria-label="A prompt travels from you to CloseNI, to a chat site, to files on your disk, and back to you for review">
<title>The loop CloseNI runs</title>
<rect width="1200" height="300" fill="#0b0d0f"/>
<rect x="0" y="0" width="1200" height="6" fill="#232c37"/><rect x="0" y="294" width="1200" height="6" fill="#232c37"/><rect x="0" y="6" width="6" height="288" fill="#232c37"/><rect x="1194" y="6" width="6" height="288" fill="#232c37"/>
<g font-family="ui-monospace,'SF Mono','DejaVu Sans Mono',Menlo,Consolas,monospace">
  <text x="48" y="33.599999999999994" fill="#7d8896" font-size="12" letter-spacing="2.6">ONE STEP, END TO END</text>
  <rect x="48" y="54" width="204" height="156" fill="#12171c"/><rect x="48" y="54" width="204" height="6" fill="#232c37"/><rect x="48" y="204" width="204" height="6" fill="#232c37"/><rect x="48" y="60" width="6" height="144" fill="#232c37"/><rect x="246" y="60" width="6" height="144" fill="#232c37"/><rect x="48" y="54" width="204" height="6" fill="#79c0ff"/><rect x="114" y="90" width="72" height="6" fill="#79c0ff"/><rect x="108" y="96" width="6" height="6" fill="#79c0ff"/><rect x="186" y="96" width="6" height="6" fill="#79c0ff"/><rect x="108" y="102" width="6" height="6" fill="#79c0ff"/><rect x="126" y="102" width="6" height="6" fill="#c9d1d9"/><rect x="144" y="102" width="6" height="6" fill="#c9d1d9"/><rect x="162" y="102" width="6" height="6" fill="#c9d1d9"/><rect x="186" y="102" width="6" height="6" fill="#79c0ff"/><rect x="108" y="108" width="6" height="6" fill="#79c0ff"/><rect x="186" y="108" width="6" height="6" fill="#79c0ff"/><rect x="108" y="114" width="6" height="6" fill="#79c0ff"/><rect x="186" y="114" width="6" height="6" fill="#79c0ff"/><rect x="114" y="120" width="72" height="6" fill="#79c0ff"/><rect x="120" y="126" width="6" height="6" fill="#79c0ff"/><rect x="132" y="126" width="6" height="6" fill="#79c0ff"/><rect x="120" y="132" width="12" height="6" fill="#79c0ff"/><text x="150" y="174" fill="#c9d1d9" font-size="14" font-weight="600" text-anchor="middle" letter-spacing="1.6">YOU</text><text x="150" y="196.79999999999998" fill="#7d8896" font-size="11.5" text-anchor="middle">a sentence</text><rect x="348" y="54" width="204" height="156" fill="#12171c"/><rect x="348" y="54" width="204" height="6" fill="#232c37"/><rect x="348" y="204" width="204" height="6" fill="#232c37"/><rect x="348" y="60" width="6" height="144" fill="#232c37"/><rect x="546" y="60" width="6" height="144" fill="#232c37"/><rect x="348" y="54" width="204" height="6" fill="#57d38c"/><rect x="384" y="84" width="24" height="6" fill="#e8e8ea"/><rect x="426" y="84" width="24" height="6" fill="#e8e8ea"/><rect x="402" y="90" width="6" height="6" fill="#e8e8ea"/><rect x="426" y="90" width="6" height="6" fill="#e8e8ea"/><rect x="402" y="96" width="6" height="6" fill="#e8e8ea"/><rect x="426" y="96" width="6" height="6" fill="#e8e8ea"/><rect x="402" y="102" width="6" height="6" fill="#e8e8ea"/><rect x="426" y="102" width="6" height="6" fill="#e8e8ea"/><rect x="402" y="108" width="6" height="6" fill="#e8e8ea"/><rect x="426" y="108" width="6" height="6" fill="#e8e8ea"/><rect x="402" y="114" width="6" height="6" fill="#e8e8ea"/><rect x="426" y="114" width="6" height="6" fill="#e8e8ea"/><rect x="402" y="120" width="6" height="6" fill="#e8e8ea"/><rect x="426" y="120" width="6" height="6" fill="#e8e8ea"/><rect x="402" y="126" width="6" height="6" fill="#e8e8ea"/><rect x="426" y="126" width="6" height="6" fill="#e8e8ea"/><rect x="402" y="132" width="6" height="6" fill="#e8e8ea"/><rect x="426" y="132" width="6" height="6" fill="#e8e8ea"/><rect x="384" y="138" width="24" height="6" fill="#e8e8ea"/><rect x="426" y="138" width="24" height="6" fill="#e8e8ea"/><g opacity="1"><rect x="492" y="84" width="18" height="6" fill="#57d38c"/><rect x="492" y="90" width="18" height="6" fill="#57d38c"/><rect x="480" y="96" width="42" height="6" fill="#57d38c"/><rect x="480" y="102" width="42" height="6" fill="#57d38c"/><rect x="468" y="108" width="24" height="6" fill="#57d38c"/><rect x="510" y="108" width="24" height="6" fill="#57d38c"/><rect x="468" y="114" width="24" height="6" fill="#57d38c"/><rect x="510" y="114" width="24" height="6" fill="#57d38c"/><rect x="468" y="120" width="24" height="6" fill="#57d38c"/><rect x="510" y="120" width="24" height="6" fill="#57d38c"/><rect x="480" y="126" width="42" height="6" fill="#57d38c"/><rect x="480" y="132" width="42" height="6" fill="#57d38c"/><rect x="492" y="138" width="18" height="6" fill="#57d38c"/><rect x="492" y="144" width="18" height="6" fill="#57d38c"/><animate attributeName="opacity" dur="0.64s" repeatCount="indefinite" calcMode="discrete" keyTimes="0;0.5" values="1;0"/></g><g opacity="0"><rect x="474" y="90" width="12" height="6" fill="#57d38c"/><rect x="516" y="90" width="12" height="6" fill="#57d38c"/><rect x="474" y="96" width="54" height="6" fill="#57d38c"/><rect x="480" y="102" width="42" height="6" fill="#57d38c"/><rect x="480" y="108" width="12" height="6" fill="#57d38c"/><rect x="510" y="108" width="12" height="6" fill="#57d38c"/><rect x="480" y="114" width="12" height="6" fill="#57d38c"/><rect x="510" y="114" width="12" height="6" fill="#57d38c"/><rect x="480" y="120" width="12" height="6" fill="#57d38c"/><rect x="510" y="120" width="12" height="6" fill="#57d38c"/><rect x="480" y="126" width="42" height="6" fill="#57d38c"/><rect x="474" y="132" width="54" height="6" fill="#57d38c"/><rect x="474" y="138" width="12" height="6" fill="#57d38c"/><rect x="516" y="138" width="12" height="6" fill="#57d38c"/><animate attributeName="opacity" dur="0.64s" repeatCount="indefinite" calcMode="discrete" keyTimes="0;0.5" values="0;1"/></g><text x="450" y="174" fill="#c9d1d9" font-size="14" font-weight="600" text-anchor="middle" letter-spacing="1.6">CLOSENI</text><text x="450" y="196.79999999999998" fill="#7d8896" font-size="11.5" text-anchor="middle">plan · run · check</text><rect x="648" y="54" width="204" height="156" fill="#12171c"/><rect x="648" y="54" width="204" height="6" fill="#232c37"/><rect x="648" y="204" width="204" height="6" fill="#232c37"/><rect x="648" y="60" width="6" height="144" fill="#232c37"/><rect x="846" y="60" width="6" height="144" fill="#232c37"/><rect x="648" y="54" width="204" height="6" fill="#bc8cff"/><rect x="696" y="84" width="108" height="6" fill="#c9d1d9"/><rect x="696" y="90" width="6" height="6" fill="#c9d1d9"/><rect x="798" y="90" width="6" height="6" fill="#c9d1d9"/><rect x="696" y="96" width="6" height="6" fill="#c9d1d9"/><rect x="708" y="96" width="6" height="6" fill="#ff7b72"/><rect x="726" y="96" width="6" height="6" fill="#e3b341"/><rect x="744" y="96" width="6" height="6" fill="#57d38c"/><rect x="798" y="96" width="6" height="6" fill="#c9d1d9"/><rect x="696" y="102" width="108" height="6" fill="#c9d1d9"/><rect x="696" y="108" width="6" height="6" fill="#c9d1d9"/><rect x="798" y="108" width="6" height="6" fill="#c9d1d9"/><rect x="696" y="114" width="6" height="6" fill="#c9d1d9"/><rect x="714" y="114" width="48" height="6" fill="#7d8896"/><rect x="798" y="114" width="6" height="6" fill="#c9d1d9"/><rect x="696" y="120" width="6" height="6" fill="#c9d1d9"/><rect x="798" y="120" width="6" height="6" fill="#c9d1d9"/><rect x="696" y="126" width="6" height="6" fill="#c9d1d9"/><rect x="738" y="126" width="54" height="6" fill="#79c0ff"/><rect x="798" y="126" width="6" height="6" fill="#c9d1d9"/><rect x="696" y="132" width="6" height="6" fill="#c9d1d9"/><rect x="798" y="132" width="6" height="6" fill="#c9d1d9"/><rect x="696" y="138" width="6" height="6" fill="#c9d1d9"/><rect x="714" y="138" width="30" height="6" fill="#7d8896"/><rect x="798" y="138" width="6" height="6" fill="#c9d1d9"/><rect x="696" y="144" width="6" height="6" fill="#c9d1d9"/><rect x="798" y="144" width="6" height="6" fill="#c9d1d9"/><rect x="696" y="150" width="108" height="6" fill="#c9d1d9"/><text x="750" y="174" fill="#c9d1d9" font-size="14" font-weight="600" text-anchor="middle" letter-spacing="1.6">CHAT SITE</text><text x="750" y="196.79999999999998" fill="#7d8896" font-size="11.5" text-anchor="middle">a real browser</text><rect x="948" y="54" width="204" height="156" fill="#12171c"/><rect x="948" y="54" width="204" height="6" fill="#232c37"/><rect x="948" y="204" width="204" height="6" fill="#232c37"/><rect x="948" y="60" width="6" height="144" fill="#232c37"/><rect x="1146" y="60" width="6" height="144" fill="#232c37"/><rect x="948" y="54" width="204" height="6" fill="#e3b341"/><rect x="1026" y="84" width="48" height="6" fill="#e3b341"/><rect x="1026" y="90" width="6" height="6" fill="#e3b341"/><rect x="1068" y="90" width="6" height="6" fill="#e3b341"/><rect x="1026" y="96" width="6" height="6" fill="#e3b341"/><rect x="1038" y="96" width="24" height="6" fill="#7d8896"/><rect x="1068" y="96" width="6" height="6" fill="#e3b341"/><rect x="1014" y="102" width="60" height="6" fill="#e3b341"/><rect x="1014" y="108" width="6" height="6" fill="#e3b341"/><rect x="1068" y="108" width="6" height="6" fill="#e3b341"/><rect x="1014" y="114" width="6" height="6" fill="#e3b341"/><rect x="1026" y="114" width="36" height="6" fill="#7d8896"/><rect x="1068" y="114" width="6" height="6" fill="#e3b341"/><rect x="1002" y="120" width="72" height="6" fill="#e3b341"/><rect x="1002" y="126" width="6" height="6" fill="#e3b341"/><rect x="1068" y="126" width="6" height="6" fill="#e3b341"/><rect x="1002" y="132" width="6" height="6" fill="#e3b341"/><rect x="1020" y="132" width="36" height="6" fill="#7d8896"/><rect x="1068" y="132" width="6" height="6" fill="#e3b341"/><rect x="1002" y="138" width="6" height="6" fill="#e3b341"/><rect x="1068" y="138" width="6" height="6" fill="#e3b341"/><rect x="1002" y="144" width="6" height="6" fill="#e3b341"/><rect x="1020" y="144" width="24" height="6" fill="#7d8896"/><rect x="1068" y="144" width="6" height="6" fill="#e3b341"/><rect x="1002" y="150" width="72" height="6" fill="#e3b341"/><text x="1050" y="174" fill="#c9d1d9" font-size="14" font-weight="600" text-anchor="middle" letter-spacing="1.6">YOUR DISK</text><text x="1050" y="196.79999999999998" fill="#7d8896" font-size="11.5" text-anchor="middle">files + a run file</text><rect x="258" y="120" width="6" height="6" fill="#232c37"/><rect x="270" y="120" width="6" height="6" fill="#232c37"/><rect x="282" y="120" width="6" height="6" fill="#232c37"/><rect x="294" y="120" width="6" height="6" fill="#232c37"/><rect x="306" y="120" width="6" height="6" fill="#232c37"/><rect x="318" y="120" width="6" height="6" fill="#232c37"/><rect x="330" y="120" width="6" height="6" fill="#232c37"/><rect x="258" y="117" width="12" height="12" fill="#79c0ff" opacity="0"><animate attributeName="x" dur="8s" repeatCount="indefinite" calcMode="discrete" keyTimes="0.00000;0.00670;0.01339;0.02009;0.02679;0.03348;0.04018;0.04688;0.05357;0.06027;0.06696;0.07366;0.08036;0.08705;0.09375" values="258;264;270;276;282;288;294;300;306;312;318;324;330;336;342"/><animate attributeName="opacity" dur="8s" repeatCount="indefinite" calcMode="discrete" keyTimes="0.00000;0.00000;0.09375" values="0;1;0"/></rect><rect x="558" y="120" width="6" height="6" fill="#232c37"/><rect x="570" y="120" width="6" height="6" fill="#232c37"/><rect x="582" y="120" width="6" height="6" fill="#232c37"/><rect x="594" y="120" width="6" height="6" fill="#232c37"/><rect x="606" y="120" width="6" height="6" fill="#232c37"/><rect x="618" y="120" width="6" height="6" fill="#232c37"/><rect x="630" y="120" width="6" height="6" fill="#232c37"/><rect x="558" y="117" width="12" height="12" fill="#57d38c" opacity="0"><animate attributeName="x" dur="8s" repeatCount="indefinite" calcMode="discrete" keyTimes="0.10625;0.11295;0.11964;0.12634;0.13304;0.13973;0.14643;0.15313;0.15982;0.16652;0.17321;0.17991;0.18661;0.19330;0.20000" values="558;564;570;576;582;588;594;600;606;612;618;624;630;636;642"/><animate attributeName="opacity" dur="8s" repeatCount="indefinite" calcMode="discrete" keyTimes="0.00000;0.10625;0.20000" values="0;1;0"/></rect><rect x="858" y="120" width="6" height="6" fill="#232c37"/><rect x="870" y="120" width="6" height="6" fill="#232c37"/><rect x="882" y="120" width="6" height="6" fill="#232c37"/><rect x="894" y="120" width="6" height="6" fill="#232c37"/><rect x="906" y="120" width="6" height="6" fill="#232c37"/><rect x="918" y="120" width="6" height="6" fill="#232c37"/><rect x="930" y="120" width="6" height="6" fill="#232c37"/><rect x="858" y="117" width="12" height="12" fill="#bc8cff" opacity="0"><animate attributeName="x" dur="8s" repeatCount="indefinite" calcMode="discrete" keyTimes="0.21250;0.21920;0.22589;0.23259;0.23929;0.24598;0.25268;0.25938;0.26607;0.27277;0.27946;0.28616;0.29286;0.29955;0.30625" values="858;864;870;876;882;888;894;900;906;912;918;924;930;936;942"/><animate attributeName="opacity" dur="8s" repeatCount="indefinite" calcMode="discrete" keyTimes="0.00000;0.21250;0.30625" values="0;1;0"/></rect><rect x="72" y="234" width="6" height="6" fill="#232c37"/><rect x="84" y="234" width="6" height="6" fill="#232c37"/><rect x="96" y="234" width="6" height="6" fill="#232c37"/><rect x="108" y="234" width="6" height="6" fill="#232c37"/><rect x="120" y="234" width="6" height="6" fill="#232c37"/><rect x="132" y="234" width="6" height="6" fill="#232c37"/><rect x="144" y="234" width="6" height="6" fill="#232c37"/><rect x="156" y="234" width="6" height="6" fill="#232c37"/><rect x="168" y="234" width="6" height="6" fill="#232c37"/><rect x="180" y="234" width="6" height="6" fill="#232c37"/><rect x="192" y="234" width="6" height="6" fill="#232c37"/><rect x="204" y="234" width="6" height="6" fill="#232c37"/><rect x="216" y="234" width="6" height="6" fill="#232c37"/><rect x="228" y="234" width="6" height="6" fill="#232c37"/><rect x="240" y="234" width="6" height="6" fill="#232c37"/><rect x="252" y="234" width="6" height="6" fill="#232c37"/><rect x="264" y="234" width="6" height="6" fill="#232c37"/><rect x="276" y="234" width="6" height="6" fill="#232c37"/><rect x="288" y="234" width="6" height="6" fill="#232c37"/><rect x="300" y="234" width="6" height="6" fill="#232c37"/><rect x="312" y="234" width="6" height="6" fill="#232c37"/><rect x="324" y="234" width="6" height="6" fill="#232c37"/><rect x="336" y="234" width="6" height="6" fill="#232c37"/><rect x="348" y="234" width="6" height="6" fill="#232c37"/><rect x="360" y="234" width="6" height="6" fill="#232c37"/><rect x="372" y="234" width="6" height="6" fill="#232c37"/><rect x="384" y="234" width="6" height="6" fill="#232c37"/><rect x="396" y="234" width="6" height="6" fill="#232c37"/><rect x="408" y="234" width="6" height="6" fill="#232c37"/><rect x="420" y="234" width="6" height="6" fill="#232c37"/><rect x="432" y="234" width="6" height="6" fill="#232c37"/><rect x="444" y="234" width="6" height="6" fill="#232c37"/><rect x="456" y="234" width="6" height="6" fill="#232c37"/><rect x="468" y="234" width="6" height="6" fill="#232c37"/><rect x="480" y="234" width="6" height="6" fill="#232c37"/><rect x="492" y="234" width="6" height="6" fill="#232c37"/><rect x="504" y="234" width="6" height="6" fill="#232c37"/><rect x="516" y="234" width="6" height="6" fill="#232c37"/><rect x="528" y="234" width="6" height="6" fill="#232c37"/><rect x="540" y="234" width="6" height="6" fill="#232c37"/><rect x="552" y="234" width="6" height="6" fill="#232c37"/><rect x="564" y="234" width="6" height="6" fill="#232c37"/><rect x="576" y="234" width="6" height="6" fill="#232c37"/><rect x="588" y="234" width="6" height="6" fill="#232c37"/><rect x="600" y="234" width="6" height="6" fill="#232c37"/><rect x="612" y="234" width="6" height="6" fill="#232c37"/><rect x="624" y="234" width="6" height="6" fill="#232c37"/><rect x="636" y="234" width="6" height="6" fill="#232c37"/><rect x="648" y="234" width="6" height="6" fill="#232c37"/><rect x="660" y="234" width="6" height="6" fill="#232c37"/><rect x="672" y="234" width="6" height="6" fill="#232c37"/><rect x="684" y="234" width="6" height="6" fill="#232c37"/><rect x="696" y="234" width="6" height="6" fill="#232c37"/><rect x="708" y="234" width="6" height="6" fill="#232c37"/><rect x="720" y="234" width="6" height="6" fill="#232c37"/><rect x="732" y="234" width="6" height="6" fill="#232c37"/><rect x="744" y="234" width="6" height="6" fill="#232c37"/><rect x="756" y="234" width="6" height="6" fill="#232c37"/><rect x="768" y="234" width="6" height="6" fill="#232c37"/><rect x="780" y="234" width="6" height="6" fill="#232c37"/><rect x="792" y="234" width="6" height="6" fill="#232c37"/><rect x="804" y="234" width="6" height="6" fill="#232c37"/><rect x="816" y="234" width="6" height="6" fill="#232c37"/><rect x="828" y="234" width="6" height="6" fill="#232c37"/><rect x="840" y="234" width="6" height="6" fill="#232c37"/><rect x="852" y="234" width="6" height="6" fill="#232c37"/><rect x="864" y="234" width="6" height="6" fill="#232c37"/><rect x="876" y="234" width="6" height="6" fill="#232c37"/><rect x="888" y="234" width="6" height="6" fill="#232c37"/><rect x="900" y="234" width="6" height="6" fill="#232c37"/><rect x="912" y="234" width="6" height="6" fill="#232c37"/><rect x="924" y="234" width="6" height="6" fill="#232c37"/><rect x="936" y="234" width="6" height="6" fill="#232c37"/><rect x="948" y="234" width="6" height="6" fill="#232c37"/><rect x="960" y="234" width="6" height="6" fill="#232c37"/><rect x="972" y="234" width="6" height="6" fill="#232c37"/><rect x="984" y="234" width="6" height="6" fill="#232c37"/><rect x="996" y="234" width="6" height="6" fill="#232c37"/><rect x="1008" y="234" width="6" height="6" fill="#232c37"/><rect x="1020" y="234" width="6" height="6" fill="#232c37"/><rect x="1032" y="234" width="6" height="6" fill="#232c37"/><rect x="1044" y="234" width="6" height="6" fill="#232c37"/><rect x="1056" y="234" width="6" height="6" fill="#232c37"/><rect x="1068" y="234" width="6" height="6" fill="#232c37"/><rect x="1080" y="234" width="6" height="6" fill="#232c37"/><rect x="1092" y="234" width="6" height="6" fill="#232c37"/><rect x="1104" y="234" width="6" height="6" fill="#232c37"/><rect x="1116" y="234" width="6" height="6" fill="#232c37"/><rect x="1128" y="234" width="6" height="6" fill="#232c37"/><rect x="1128" y="231" width="12" height="12" fill="#c9d1d9" opacity="0"><animate attributeName="x" dur="8s" repeatCount="indefinite" calcMode="discrete" keyTimes="0.42500;0.42614;0.42727;0.42841;0.42955;0.43068;0.43182;0.43295;0.43409;0.43523;0.43636;0.43750;0.43864;0.43977;0.44091;0.44205;0.44318;0.44432;0.44545;0.44659;0.44773;0.44886;0.45000;0.45114;0.45227;0.45341;0.45455;0.45568;0.45682;0.45795;0.45909;0.46023;0.46136;0.46250;0.46364;0.46477;0.46591;0.46705;0.46818;0.46932;0.47045;0.47159;0.47273;0.47386;0.47500;0.47614;0.47727;0.47841;0.47955;0.48068;0.48182;0.48295;0.48409;0.48523;0.48636;0.48750;0.48864;0.48977;0.49091;0.49205;0.49318;0.49432;0.49545;0.49659;0.49773;0.49886;0.50000;0.50114;0.50227;0.50341;0.50455;0.50568;0.50682;0.50795;0.50909;0.51023;0.51136;0.51250;0.51364;0.51477;0.51591;0.51705;0.51818;0.51932;0.52045;0.52159;0.52273;0.52386;0.52500;0.52614;0.52727;0.52841;0.52955;0.53068;0.53182;0.53295;0.53409;0.53523;0.53636;0.53750;0.53864;0.53977;0.54091;0.54205;0.54318;0.54432;0.54545;0.54659;0.54773;0.54886;0.55000;0.55114;0.55227;0.55341;0.55455;0.55568;0.55682;0.55795;0.55909;0.56023;0.56136;0.56250;0.56364;0.56477;0.56591;0.56705;0.56818;0.56932;0.57045;0.57159;0.57273;0.57386;0.57500;0.57614;0.57727;0.57841;0.57955;0.58068;0.58182;0.58295;0.58409;0.58523;0.58636;0.58750;0.58864;0.58977;0.59091;0.59205;0.59318;0.59432;0.59545;0.59659;0.59773;0.59886;0.60000;0.60114;0.60227;0.60341;0.60455;0.60568;0.60682;0.60795;0.60909;0.61023;0.61136;0.61250;0.61364;0.61477;0.61591;0.61705;0.61818;0.61932;0.62045;0.62159;0.62273;0.62386;0.62500" values="1128;1122;1116;1110;1104;1098;1092;1086;1080;1074;1068;1062;1056;1050;1044;1038;1032;1026;1020;1014;1008;1002;996;990;984;978;972;966;960;954;948;942;936;930;924;918;912;906;900;894;888;882;876;870;864;858;852;846;840;834;828;822;816;810;804;798;792;786;780;774;768;762;756;750;744;738;732;726;720;714;708;702;696;690;684;678;672;666;660;654;648;642;636;630;624;618;612;606;600;594;588;582;576;570;564;558;552;546;540;534;528;522;516;510;504;498;492;486;480;474;468;462;456;450;444;438;432;426;420;414;408;402;396;390;384;378;372;366;360;354;348;342;336;330;324;318;312;306;300;294;288;282;276;270;264;258;252;246;240;234;228;222;216;210;204;198;192;186;180;174;168;162;156;150;144;138;132;126;120;114;108;102;96;90;84;78;72"/><animate attributeName="opacity" dur="8s" repeatCount="indefinite" calcMode="discrete" keyTimes="0.00000;0.42500;0.62500" values="0;1;0"/></rect>
  <text x="600" y="258" fill="#7d8896" font-size="12" text-anchor="middle" letter-spacing="1.2">EVERY STEP IS SHOWN TO YOU BEFORE THE NEXT ONE STARTS</text>
</g>
</svg>
